<svg width="395" height="380" viewBox="0 0 395 380" fill="none" xmlns="http://www.w3.org/2000/svg">
<rect width="347" height="380" rx="17" fill="#E9E9E9"/>
<rect x="4" y="4" width="339" height="372" rx="13" fill="white"/>
<circle cx="259" cy="15" r="6" fill="#F3F3F3"/>
<rect x="11.5" y="71.5" width="156" height="176" rx="18.5" fill="white" stroke="#F2F2F2"/>
<path d="M19.5625 52.4787V49.9091H30.6271V52.4787H26.6577V63H23.5384V52.4787H19.5625ZM35.3317 63.1854C34.3004 63.1854 33.4141 62.9744 32.6726 62.5526C31.9354 62.1264 31.3665 61.5341 30.9659 60.7756C30.5696 60.0128 30.3714 59.1286 30.3714 58.1229C30.3714 57.1129 30.5696 56.2287 30.9659 55.4702C31.3665 54.7074 31.9354 54.1151 32.6726 53.6932C33.4141 53.267 34.3004 53.054 35.3317 53.054C36.3629 53.054 37.2472 53.267 37.9844 53.6932C38.7259 54.1151 39.2947 54.7074 39.6911 55.4702C40.0916 56.2287 40.2919 57.1129 40.2919 58.1229C40.2919 59.1286 40.0916 60.0128 39.6911 60.7756C39.2947 61.5341 38.7259 62.1264 37.9844 62.5526C37.2472 62.9744 36.3629 63.1854 35.3317 63.1854ZM35.3509 60.8267C35.7259 60.8267 36.0433 60.7116 36.3033 60.4815C36.5632 60.2514 36.7614 59.9318 36.8977 59.5227C37.0384 59.1136 37.1087 58.6406 37.1087 58.1037C37.1087 57.5582 37.0384 57.081 36.8977 56.6719C36.7614 56.2628 36.5632 55.9432 36.3033 55.7131C36.0433 55.483 35.7259 55.3679 35.3509 55.3679C34.9631 55.3679 34.6349 55.483 34.3665 55.7131C34.1023 55.9432 33.8999 56.2628 33.7592 56.6719C33.6229 57.081 33.5547 57.5582 33.5547 58.1037C33.5547 58.6406 33.6229 59.1136 33.7592 59.5227C33.8999 59.9318 34.1023 60.2514 34.3665 60.4815C34.6349 60.7116 34.9631 60.8267 35.3509 60.8267ZM45.479 63.1406C44.7546 63.1406 44.0962 62.9531 43.5039 62.5781C42.9116 62.2031 42.4386 61.6406 42.0849 60.8906C41.7312 60.1406 41.5543 59.2095 41.5543 58.0973C41.5543 56.9425 41.7376 55.9922 42.104 55.2464C42.4705 54.5007 42.9499 53.9489 43.5423 53.5909C44.1388 53.233 44.7802 53.054 45.4663 53.054C45.9819 53.054 46.4229 53.1435 46.7894 53.3224C47.1559 53.4972 47.4585 53.723 47.6971 54C47.9357 54.277 48.1168 54.5646 48.2404 54.8629H48.3043V49.9091H51.43V63H48.3363V61.4084H48.2404C48.1083 61.7109 47.9208 61.9943 47.6779 62.2585C47.435 62.5227 47.1303 62.7358 46.7638 62.8977C46.4016 63.0597 45.9734 63.1406 45.479 63.1406ZM46.5657 60.7053C46.945 60.7053 47.2688 60.5987 47.5373 60.3857C47.8058 60.1683 48.0124 59.8636 48.1573 59.4716C48.3022 59.0795 48.3746 58.6193 48.3746 58.0909C48.3746 57.554 48.3022 57.0916 48.1573 56.7038C48.0167 56.3161 47.81 56.0178 47.5373 55.8089C47.2688 55.6001 46.945 55.4957 46.5657 55.4957C46.1779 55.4957 45.8498 55.6023 45.5813 55.8153C45.3129 56.0284 45.1083 56.3288 44.9677 56.7166C44.8313 57.1044 44.7631 57.5625 44.7631 58.0909C44.7631 58.6193 44.8335 59.0795 44.9741 59.4716C45.1147 59.8636 45.3171 60.1683 45.5813 60.3857C45.8498 60.5987 46.1779 60.7053 46.5657 60.7053ZM56.1745 63.1662C55.5481 63.1662 54.992 63.0618 54.5062 62.853C54.0247 62.6399 53.6433 62.3203 53.362 61.8942C53.085 61.4638 52.9466 60.9247 52.9466 60.277C52.9466 59.7315 53.0424 59.2713 53.2342 58.8963C53.426 58.5213 53.6902 58.2166 54.0268 57.9822C54.3635 57.7479 54.7512 57.571 55.1902 57.4517C55.6291 57.3281 56.0978 57.245 56.5964 57.2024C57.1547 57.1513 57.6042 57.098 57.9451 57.0426C58.286 56.983 58.5332 56.8999 58.6866 56.7933C58.8443 56.6825 58.9231 56.527 58.9231 56.3267V56.2947C58.9231 55.9666 58.8102 55.7131 58.5843 55.5341C58.3585 55.3551 58.0538 55.2656 57.6703 55.2656C57.2569 55.2656 56.9245 55.3551 56.6731 55.5341C56.4217 55.7131 56.2619 55.9602 56.1937 56.2756L53.3109 56.1733C53.3961 55.5767 53.6156 55.044 53.9693 54.5753C54.3272 54.1023 54.8173 53.7315 55.4395 53.4631C56.0659 53.1903 56.818 53.054 57.6958 53.054C58.3223 53.054 58.8997 53.1286 59.4281 53.2777C59.9565 53.4226 60.4167 53.6357 60.8088 53.9169C61.2008 54.1939 61.5034 54.5348 61.7164 54.9396C61.9338 55.3445 62.0424 55.8068 62.0424 56.3267V63H59.1021V61.6321H59.0254C58.8507 61.9645 58.627 62.2457 58.3542 62.4759C58.0858 62.706 57.7683 62.8786 57.4018 62.9936C57.0396 63.1087 56.6305 63.1662 56.1745 63.1662ZM57.1397 61.1207C57.4764 61.1207 57.7789 61.0526 58.0474 60.9162C58.3201 60.7798 58.5375 60.5923 58.6994 60.3537C58.8613 60.1108 58.9423 59.8295 58.9423 59.5099V58.5767C58.8528 58.6236 58.7441 58.6662 58.6163 58.7045C58.4927 58.7429 58.3564 58.7791 58.2072 58.8132C58.0581 58.8473 57.9047 58.8771 57.747 58.9027C57.5893 58.9283 57.438 58.9517 57.2931 58.973C56.9991 59.0199 56.7477 59.0923 56.5389 59.1903C56.3343 59.2884 56.1767 59.4162 56.0659 59.5739C55.9593 59.7273 55.9061 59.9105 55.9061 60.1236C55.9061 60.4474 56.0211 60.6946 56.2512 60.8651C56.4856 61.0355 56.7818 61.1207 57.1397 61.1207ZM65.5133 66.6818C65.1383 66.6818 64.7846 66.652 64.4522 66.5923C64.1199 66.5369 63.8343 66.4624 63.5957 66.3686L64.286 64.0994C64.5929 64.2017 64.8699 64.2614 65.117 64.2784C65.3684 64.2955 65.5836 64.255 65.7626 64.157C65.9458 64.0632 66.0865 63.8949 66.1845 63.652L66.3059 63.358L62.8159 53.1818H66.0886L67.8976 60.1875H67.9998L69.8343 53.1818H73.1262L69.4252 63.9396C69.2463 64.4766 68.9927 64.9496 68.6646 65.3587C68.3407 65.772 67.921 66.0959 67.4054 66.3303C66.894 66.5646 66.2633 66.6818 65.5133 66.6818ZM83.7722 53.1818V55.483H77.4569V53.1818H83.7722ZM78.7736 63V52.6832C78.7736 51.9247 78.9164 51.2962 79.2019 50.7976C79.4874 50.2947 79.8837 49.9197 80.3908 49.6726C80.8979 49.4212 81.4838 49.2955 82.1486 49.2955C82.5833 49.2955 82.9924 49.3295 83.3759 49.3977C83.7637 49.4616 84.0513 49.5192 84.2388 49.5703L83.7402 51.8587C83.6252 51.8203 83.4846 51.7884 83.3184 51.7628C83.1564 51.7372 83.003 51.7244 82.8581 51.7244C82.4917 51.7244 82.2402 51.8054 82.1039 51.9673C81.9675 52.1293 81.8993 52.3509 81.8993 52.6321V63H78.7736ZM89.549 63.1854C88.522 63.1854 87.6357 62.983 86.8899 62.5781C86.1484 62.169 85.5774 61.5874 85.1768 60.8331C84.7805 60.0746 84.5824 59.1733 84.5824 58.1293C84.5824 57.1151 84.7827 56.2287 85.1832 55.4702C85.5838 54.7074 86.1484 54.1151 86.8771 53.6932C87.6058 53.267 88.4645 53.054 89.4531 53.054C90.152 53.054 90.7912 53.1626 91.3707 53.38C91.9503 53.5973 92.451 53.919 92.8729 54.3452C93.2947 54.7713 93.6229 55.2976 93.8572 55.924C94.0916 56.5462 94.2088 57.2599 94.2088 58.0653V58.8452H85.6754V57.0298H91.3004C91.2962 56.6974 91.2173 56.4013 91.0639 56.1413C90.9105 55.8814 90.6996 55.679 90.4311 55.5341C90.1669 55.3849 89.8622 55.3104 89.517 55.3104C89.1676 55.3104 88.8544 55.3892 88.5774 55.5469C88.3004 55.7003 88.081 55.9112 87.919 56.1797C87.7571 56.4439 87.6719 56.7443 87.6634 57.081V58.9283C87.6634 59.3288 87.7422 59.6804 87.8999 59.983C88.0575 60.2812 88.2812 60.5135 88.571 60.6797C88.8608 60.8459 89.206 60.929 89.6065 60.929C89.8835 60.929 90.1349 60.8906 90.3608 60.8139C90.5866 60.7372 90.7805 60.6243 90.9425 60.4751C91.1044 60.326 91.2259 60.1428 91.3068 59.9254L94.1768 60.0085C94.0575 60.652 93.7955 61.2124 93.3906 61.6896C92.9901 62.1626 92.4638 62.5312 91.8118 62.7955C91.1598 63.0554 90.4055 63.1854 89.549 63.1854ZM100.395 63.1854C99.3677 63.1854 98.4814 62.983 97.7356 62.5781C96.9941 62.169 96.4231 61.5874 96.0225 60.8331C95.6262 60.0746 95.4281 59.1733 95.4281 58.1293C95.4281 57.1151 95.6284 56.2287 96.0289 55.4702C96.4295 54.7074 96.9941 54.1151 97.7228 53.6932C98.4515 53.267 99.3102 53.054 100.299 53.054C100.998 53.054 101.637 53.1626 102.216 53.38C102.796 53.5973 103.297 53.919 103.719 54.3452C104.14 54.7713 104.469 55.2976 104.703 55.924C104.937 56.5462 105.055 57.2599 105.055 58.0653V58.8452L96.5211 58.8452V57.0298H102.146C102.142 56.6974 102.063 56.4013 101.91 56.1413C101.756 55.8814 101.545 55.679 101.277 55.5341C101.013 55.3849 100.708 55.3104 100.363 55.3104C100.013 55.3104 99.7001 55.3892 99.4231 55.5469C99.1461 55.7003 98.9267 55.9112 98.7647 56.1797C98.6028 56.4439 98.5176 56.7443 98.5091 57.081V58.9283C98.5091 59.3288 98.5879 59.6804 98.7456 59.983C98.9032 60.2812 99.127 60.5135 99.4167 60.6797C99.7065 60.8459 100.052 60.929 100.452 60.929C100.729 60.929 100.981 60.8906 101.206 60.8139C101.432 60.7372 101.626 60.6243 101.788 60.4751C101.95 60.326 102.072 60.1428 102.153 59.9254L105.023 60.0085C104.903 60.652 104.641 61.2124 104.236 61.6896C103.836 62.1626 103.309 62.5312 102.657 62.7955C102.006 63.0554 101.251 63.1854 100.395 63.1854ZM110.237 63.1406C109.512 63.1406 108.854 62.9531 108.262 62.5781C107.669 62.2031 107.196 61.6406 106.843 60.8906C106.489 60.1406 106.312 59.2095 106.312 58.0973C106.312 56.9425 106.495 55.9922 106.862 55.2464C107.228 54.5007 107.708 53.9489 108.3 53.5909C108.897 53.233 109.538 53.054 110.224 53.054C110.74 53.054 111.181 53.1435 111.547 53.3224C111.914 53.4972 112.216 53.723 112.455 54C112.694 54.277 112.875 54.5646 112.998 54.8629H113.062V49.9091H116.188V63H113.094V61.4084H112.998C112.866 61.7109 112.679 61.9943 112.436 62.2585C112.193 62.5227 111.888 62.7358 111.522 62.8977C111.159 63.0597 110.731 63.1406 110.237 63.1406ZM111.324 60.7053C111.703 60.7053 112.027 60.5987 112.295 60.3857C112.564 60.1683 112.77 59.8636 112.915 59.4716C113.06 59.0795 113.132 58.6193 113.132 58.0909C113.132 57.554 113.06 57.0916 112.915 56.7038C112.775 56.3161 112.568 56.0178 112.295 55.8089C112.027 55.6001 111.703 55.4957 111.324 55.4957C110.936 55.4957 110.608 55.6023 110.339 55.8153C110.071 56.0284 109.866 56.3288 109.725 56.7166C109.589 57.1044 109.521 57.5625 109.521 58.0909C109.521 58.6193 109.591 59.0795 109.732 59.4716C109.873 59.8636 110.075 60.1683 110.339 60.3857C110.608 60.5987 110.936 60.7053 111.324 60.7053Z" fill="#A6A6A6"/>
<ellipse cx="29" cy="90.5" rx="10" ry="10.5" fill="#E9E9E9"/>
<rect x="45" y="82" width="96" height="5" rx="2.5" fill="#E9E9E9"/>
<rect x="45" y="91" width="40" height="6" rx="3" fill="#E9E9E9"/>
<rect x="22" y="114" width="135" height="120" rx="9" fill="#E9E9E9"/>
<path d="M30 257.5H149C159.217 257.5 167.5 265.783 167.5 276V358C167.5 367.665 159.665 375.5 150 375.5H29C19.335 375.5 11.5 367.665 11.5 358L11.5 276C11.5 265.783 19.7827 257.5 30 257.5Z" fill="white" stroke="#F2F2F2"/>
<ellipse cx="29" cy="276" rx="10" ry="11" fill="#E9E9E9"/>
<rect x="45" y="268" width="96" height="6" rx="3" fill="#E9E9E9"/>
<rect x="45" y="278" width="40" height="6" rx="3" fill="#E9E9E9"/>
<path d="M22 304C22 299.029 26.0294 295 31 295H147C151.971 295 156 299.029 156 304V375H22L22 304Z" fill="#E9E9E9"/>
<rect x="178.5" y="71.5" width="156" height="176" rx="18.5" fill="white" stroke="#F2F2F2"/>
<ellipse cx="196" cy="90.5" rx="10" ry="10.5" fill="#E9E9E9"/>
<rect x="212" y="82" width="96" height="5" rx="2.5" fill="#E9E9E9"/>
<rect x="212" y="91" width="40" height="6" rx="3" fill="#E9E9E9"/>
<rect x="189" y="114" width="135" height="120" rx="9" fill="#E9E9E9"/>
<path d="M197 257.5H316C326.217 257.5 334.5 265.783 334.5 276V358C334.5 367.665 326.665 375.5 317 375.5H196C186.335 375.5 178.5 367.665 178.5 358V276C178.5 265.783 186.783 257.5 197 257.5Z" fill="white" stroke="#F2F2F2"/>
<ellipse cx="196" cy="276" rx="10" ry="11" fill="#E9E9E9"/>
<rect x="212" y="268" width="96" height="6" rx="3" fill="#E9E9E9"/>
<rect x="212" y="278" width="40" height="6" rx="3" fill="#E9E9E9"/>
<path d="M189 304C189 299.029 193.029 295 198 295H314C318.971 295 323 299.029 323 304V375H189V304Z" fill="#E9E9E9"/>
<path d="M356 2.2017L385.091 2.2017V22.0597H379.381V9.23295H373.415V20.7955H367.69V9.23295L356 9.23295V2.2017ZM355.588 34.1832C355.588 31.8916 356.057 29.9219 356.994 28.2741C357.941 26.6359 359.258 25.3717 360.943 24.4815C362.638 23.6009 364.603 23.1605 366.838 23.1605C369.082 23.1605 371.047 23.6009 372.733 24.4815C374.428 25.3717 375.744 26.6359 376.682 28.2741C377.629 29.9219 378.102 31.8916 378.102 34.1832C378.102 36.4749 377.629 38.4399 376.682 40.0781C375.744 41.7259 374.428 42.9901 372.733 43.8707C371.047 44.7609 369.082 45.206 366.838 45.206C364.603 45.206 362.638 44.7609 360.943 43.8707C359.258 42.9901 357.941 41.7259 356.994 40.0781C356.057 38.4399 355.588 36.4749 355.588 34.1832ZM360.83 34.2259C360.83 35.0592 361.085 35.7647 361.597 36.3423C362.108 36.92 362.818 37.3603 363.727 37.6634C364.636 37.9759 365.688 38.1321 366.881 38.1321C368.093 38.1321 369.153 37.9759 370.062 37.6634C370.972 37.3603 371.682 36.92 372.193 36.3423C372.705 35.7647 372.96 35.0592 372.96 34.2259C372.96 33.3641 372.705 32.6349 372.193 32.0384C371.682 31.4512 370.972 31.0014 370.062 30.6889C369.153 30.3859 368.093 30.2344 366.881 30.2344C365.688 30.2344 364.636 30.3859 363.727 30.6889C362.818 31.0014 362.108 31.4512 361.597 32.0384C361.085 32.6349 360.83 33.3641 360.83 34.2259ZM385.091 55.7102L356 55.7102V48.7642L385.091 48.7642V55.7102ZM355.688 68.1001C355.688 66.4903 356.104 65.0272 356.938 63.7109C357.771 62.3946 359.021 61.3435 360.688 60.5575C362.354 59.7715 364.423 59.3786 366.895 59.3786C369.461 59.3786 371.573 59.7857 373.23 60.6001C374.887 61.4145 376.114 62.4799 376.909 63.7962C377.705 65.1219 378.102 66.5471 378.102 68.0717C378.102 69.2176 377.903 70.1977 377.506 71.0121C377.117 71.8265 376.616 72.4988 376 73.0291C375.384 73.5594 374.745 73.9619 374.082 74.2365V74.3786H385.091V81.3246L356 81.3246V74.4496L359.537 74.4496V74.2365C358.865 73.9429 358.235 73.5263 357.648 72.9865C357.061 72.4467 356.587 71.7697 356.227 70.9553C355.867 70.1503 355.688 69.1986 355.688 68.1001ZM361.099 70.5149C361.099 71.3577 361.336 72.0774 361.81 72.674C362.293 73.2706 362.97 73.7299 363.841 74.0518C364.712 74.3738 365.735 74.5348 366.909 74.5348C368.102 74.5348 369.13 74.3738 369.991 74.0518C370.853 73.7393 371.516 73.2801 371.98 72.674C372.444 72.0774 372.676 71.3577 372.676 70.5149C372.676 69.6532 372.439 68.924 371.966 68.3274C371.492 67.7308 370.825 67.2763 369.963 66.9638C369.101 66.6607 368.083 66.5092 366.909 66.5092C365.735 66.5092 364.712 66.6655 363.841 66.978C362.97 67.2905 362.293 67.7403 361.81 68.3274C361.336 68.924 361.099 69.6532 361.099 70.5149ZM355.631 91.8679C355.631 90.4759 355.863 89.2401 356.327 88.1605C356.8 87.0904 357.51 86.2429 358.457 85.6179C359.414 85.0024 360.612 84.6946 362.051 84.6946C363.263 84.6946 364.286 84.9077 365.119 85.3338C365.953 85.7599 366.63 86.3471 367.151 87.0952C367.671 87.8433 368.064 88.705 368.33 89.6804C368.604 90.6558 368.789 91.6974 368.884 92.8054C368.997 94.0459 369.116 95.045 369.239 95.8026C369.371 96.5601 369.556 97.1094 369.793 97.4503C370.039 97.8007 370.384 97.9759 370.83 97.9759H370.901C371.63 97.9759 372.193 97.7249 372.591 97.223C372.989 96.7211 373.188 96.044 373.188 95.1918C373.188 94.2732 372.989 93.5346 372.591 92.9759C372.193 92.4171 371.644 92.062 370.943 91.9105L371.17 85.5043C372.496 85.6937 373.68 86.1813 374.722 86.9673C375.773 87.7628 376.597 88.8518 377.193 90.2344C377.799 91.6264 378.102 93.2978 378.102 95.2486C378.102 96.6406 377.937 97.9238 377.605 99.098C377.283 100.272 376.81 101.295 376.185 102.166C375.569 103.037 374.812 103.71 373.912 104.183C373.012 104.666 371.985 104.908 370.83 104.908L356 104.908V98.3736L359.04 98.3736V98.2031C358.301 97.8149 357.676 97.3177 357.165 96.7116C356.653 96.1151 356.27 95.4096 356.014 94.5952C355.759 93.7902 355.631 92.8812 355.631 91.8679ZM360.176 94.0128C360.176 94.7609 360.328 95.4332 360.631 96.0298C360.934 96.6359 361.35 97.1188 361.881 97.4787C362.42 97.8385 363.045 98.0185 363.756 98.0185H365.83C365.725 97.8196 365.631 97.5781 365.545 97.294C365.46 97.0194 365.38 96.7164 365.304 96.3849C365.228 96.0535 365.162 95.7126 365.105 95.3622C365.048 95.0118 364.996 94.6757 364.949 94.3537C364.845 93.7003 364.684 93.1416 364.466 92.6776C364.248 92.223 363.964 91.8726 363.614 91.6264C363.273 91.3897 362.866 91.2713 362.392 91.2713C361.672 91.2713 361.123 91.527 360.744 92.0384C360.366 92.5592 360.176 93.2173 360.176 94.0128ZM356 109.155L385.091 109.155V116.101H374.082V116.243C374.745 116.527 375.384 116.929 376 117.45C376.616 117.981 377.117 118.653 377.506 119.467C377.903 120.291 378.102 121.276 378.102 122.422C378.102 123.937 377.705 125.353 376.909 126.669C376.114 127.995 374.887 129.065 373.23 129.879C371.573 130.694 369.461 131.101 366.895 131.101C364.423 131.101 362.354 130.708 360.688 129.922C359.021 129.145 357.771 128.094 356.938 126.768C356.104 125.452 355.688 123.989 355.688 122.379C355.688 121.281 355.867 120.329 356.227 119.524C356.587 118.719 357.061 118.042 357.648 117.493C358.235 116.953 358.865 116.536 359.537 116.243V116.03L356 116.03V109.155ZM366.909 115.959C365.735 115.959 364.712 116.115 363.841 116.428C362.97 116.75 362.293 117.209 361.81 117.805C361.336 118.411 361.099 119.136 361.099 119.979C361.099 120.831 361.336 121.555 361.81 122.152C362.293 122.749 362.97 123.198 363.841 123.501C364.712 123.814 365.735 123.97 366.909 123.97C368.083 123.97 369.101 123.814 369.963 123.501C370.825 123.198 371.492 122.749 371.966 122.152C372.439 121.565 372.676 120.84 372.676 119.979C372.676 119.126 372.444 118.402 371.98 117.805C371.516 117.209 370.853 116.75 369.991 116.428C369.13 116.115 368.102 115.959 366.909 115.959ZM385.091 141.687H356V134.741H385.091V141.687ZM355.588 156.307C355.588 154.025 356.038 152.055 356.938 150.398C357.847 148.75 359.139 147.481 360.815 146.591C362.501 145.71 364.504 145.27 366.824 145.27C369.078 145.27 371.047 145.715 372.733 146.605C374.428 147.495 375.744 148.75 376.682 150.369C377.629 151.989 378.102 153.897 378.102 156.094C378.102 157.647 377.861 159.067 377.378 160.355C376.895 161.643 376.18 162.756 375.233 163.693C374.286 164.631 373.116 165.36 371.724 165.881C370.342 166.402 368.756 166.662 366.966 166.662H365.233L365.233 147.699H369.267V160.199C370.006 160.189 370.664 160.014 371.241 159.673C371.819 159.332 372.269 158.864 372.591 158.267C372.922 157.68 373.088 157.003 373.088 156.236C373.088 155.459 372.913 154.763 372.562 154.148C372.222 153.532 371.753 153.045 371.156 152.685C370.569 152.325 369.902 152.135 369.153 152.116H365.048C364.158 152.116 363.377 152.292 362.705 152.642C362.042 152.992 361.526 153.49 361.156 154.134C360.787 154.777 360.602 155.545 360.602 156.435C360.602 157.05 360.688 157.609 360.858 158.111C361.028 158.613 361.279 159.044 361.611 159.403C361.942 159.763 362.349 160.033 362.832 160.213L362.648 166.591C361.218 166.326 359.973 165.743 358.912 164.844C357.861 163.954 357.042 162.784 356.455 161.335C355.877 159.886 355.588 158.21 355.588 156.307Z" fill="#E9E9E9"/>
</svg>
